<?xml version="1.0" encoding="UTF-8" standalone="no"?>
<svg
   xmlns:dc="http://purl.org/dc/elements/1.1/"
   xmlns:cc="http://creativecommons.org/ns#"
   xmlns:rdf="http://www.w3.org/1999/02/22-rdf-syntax-ns#"
   xmlns:svg="http://www.w3.org/2000/svg"
   xmlns="http://www.w3.org/2000/svg"
   xmlns:sodipodi="http://sodipodi.sourceforge.net/DTD/sodipodi-0.dtd"
   xmlns:inkscape="http://www.inkscape.org/namespaces/inkscape"
   width="1731.2708"
   height="2298.5657"
   viewBox="221.807 89.47 430.12938 571.0198"
   enable-background="new 221.807 89.47 440 621.061"
   version="1.1"
   id="svg29"
   sodipodi:docname="logo.svg"
   inkscape:version="0.92.2 5c3e80d, 2017-08-06">
  <metadata
     id="metadata35">
    <rdf:RDF>
      <cc:Work
         rdf:about="">
        <dc:format>image/svg+xml</dc:format>
        <dc:type
           rdf:resource="http://purl.org/dc/dcmitype/StillImage" />
        <dc:title />
      </cc:Work>
    </rdf:RDF>
  </metadata>
  <defs
     id="defs33" />
  <sodipodi:namedview
     pagecolor="#ffffff"
     bordercolor="#666666"
     borderopacity="1"
     objecttolerance="10"
     gridtolerance="10"
     guidetolerance="10"
     inkscape:pageopacity="0"
     inkscape:pageshadow="2"
     inkscape:window-width="1201"
     inkscape:window-height="719"
     id="namedview31"
     showgrid="true"
     inkscape:zoom="0.22013728"
     inkscape:cx="865.63537"
     inkscape:cy="1149.2921"
     inkscape:window-x="135"
     inkscape:window-y="0"
     inkscape:window-maximized="0"
     inkscape:current-layer="layer3"
     showborder="false"
     showguides="false">
    <inkscape:grid
       type="xygrid"
       id="grid914" />
  </sodipodi:namedview>
  <filter
     id="a"
     width="1.5"
     height="1.5"
     x="-0.050000001"
     y="-0.050000001">
    <feFlood
       flood-color="#000"
       result="floodFill"
       flood-opacity=".5"
       id="feFlood2" />
    <feComposite
       in="floodFill"
       in2="SourceAlpha"
       operator="in"
       result="coloredAlpha"
       id="feComposite4" />
    <feGaussianBlur
       in="coloredAlpha"
       result="blur"
       stdDeviation="8"
       id="feGaussianBlur6" />
    <feComposite
       in="blur"
       in2="SourceGraphic"
       operator="out"
       result="maskedOffsetBlur"
       id="feComposite8" />
    <feMerge
       id="feMerge14">
      <feMergeNode
         in="maskedOffsetBlur"
         id="feMergeNode10" />
      <feMergeNode
         in="SourceGraphic"
         id="feMergeNode12" />
    </feMerge>
  </filter>
  <g
     inkscape:groupmode="layer"
     id="layer3"
     inkscape:label="Layer 1"
     style="display:inline"
     transform="translate(-7.48216,-47.635726)">
    <g
       id="g908"
       transform="matrix(2.8453072,0,0,2.8453072,229.28916,137.07722)">
      <g
         style="display:inline"
         transform="translate(0.58041506,1.1437275)"
         id="layer1"
         inkscape:label="Layer 1">
        <path
           inkscape:connector-curvature="0"
           id="path994"
           d="M 54.328292,185.32577 C 21.939702,180.67541 3.0114905,168.4401 0.93390245,150.81136 0.41542345,146.41196 0.20587145,117.29359 0.46823045,86.103905 0.89046345,35.908376 1.2463305,28.862676 3.5667515,24.757313 10.761651,12.027891 29.853532,3.4336011 58.846842,-0.12724803 97.560632,-4.8819425 140.40999,7.589924 148.23005,25.888896 c 3.12871,7.321172 3.15676,126.275194 0.0315,133.588304 -2.40654,5.63132 -10.10081,12.41369 -19.14128,16.87269 -16.2258,8.00303 -51.817998,12.27447 -74.791978,8.97588 z m 52.098588,-19.78182 c 6.54396,-1.46049 15.71364,-5.04598 20.37708,-7.96775 8.18019,-5.12515 8.49566,-5.60429 8.95294,-13.59816 0.41646,-7.28044 0.14174,-8.15143 -2.26413,-7.17828 -39.949798,16.15935 -75.713458,16.15935 -115.66326,0 -2.405871,-0.97315 -2.680587,-0.10219 -2.264119,7.17828 0.457728,8.00175 0.766749,8.46923 9.013276,13.63486 4.696612,2.94196 13.526673,6.48036 19.622356,7.86311 14.717759,3.33858 47.411319,3.37428 62.225857,0.068 z m 0,-37.80569 c 6.54396,-1.46049 15.71364,-5.04598 20.37708,-7.96777 8.18019,-5.12513 8.49566,-5.60428 8.95294,-13.59813 0.41646,-7.280471 0.14174,-8.151438 -2.26413,-7.17829 -39.949798,16.15934 -75.713458,16.15934 -115.66326,0 -2.405871,-0.973148 -2.680587,-0.102202 -2.264119,7.17829 0.457728,8.00174 0.766749,8.46921 9.013276,13.63484 4.696612,2.94196 13.526673,6.48036 19.622356,7.86311 14.717759,3.33859 47.411319,3.3743 62.225857,0.0679 z m 0,-37.8057 c 6.54396,-1.46049 15.71364,-5.045978 20.37708,-7.967766 8.18019,-5.125138 8.49566,-5.60428 8.95294,-13.598137 0.41646,-7.280466 0.14174,-8.151441 -2.26413,-7.178293 -39.949798,16.159344 -75.713458,16.159344 -115.66326,0 -2.405871,-0.973148 -2.680587,-0.102203 -2.264119,7.178293 0.457728,8.001739 0.766749,8.469206 9.013276,13.63484 4.696612,2.941965 13.526673,6.480359 19.622356,7.863117 14.717759,3.338587 47.411319,3.374286 62.225857,0.06793 z m 0,-37.8057 c 13.15388,-2.935707 28.85603,-11.705036 28.85603,-16.115506 0,-4.41047 -15.70215,-13.17981 -28.85603,-16.115519 -15.271598,-3.408345 -46.259878,-3.408345 -61.53148,0 -13.153877,2.935709 -28.856031,11.705049 -28.856031,16.115519 0,4.28554 15.667241,13.213316 28.161654,16.047557 14.717759,3.338589 47.411319,3.374289 62.225857,0.06791 z"
           style="fill:#005a9c;fill-opacity:1;stroke-width:1.68914735" />
        <path
           transform="scale(0.26458333)"
           inkscape:connector-curvature="0"
           id="path1061"
           d="M 141.66713,389.07174 C 99.756326,382.95926 62.643186,368.72331 46.479234,352.55937 31.406825,337.48694 30.640695,330.12911 32.016703,213.66254 33.433609,93.734265 33.125471,95.422619 56.275991,80.740994 117.55855,41.876743 270.67853,39.223655 342.6068,75.779782 c 29.469,14.977032 29.51634,15.100817 32.61777,85.266968 1.67966,38.00067 1.64017,82.80976 -0.10714,121.45645 -2.60323,57.58037 -3.15254,61.64863 -9.1916,68.07694 -8.5526,9.10383 -34.98352,22.9076 -54.82839,28.63457 -39.00483,11.25632 -125.38085,16.28146 -169.4304,9.85703 z m 122.61858,-31.23877 c 25.13437,-3.59326 56.48578,-13.3344 68.09449,-21.15748 6.58954,-4.44069 9.52766,-9.20758 11.34766,-18.4107 3.45517,-17.47161 0.63034,-18.98458 -22.66649,-12.14002 -73.70951,21.65568 -143.21123,22.6044 -220.95999,3.01616 -18.50578,-4.66239 -33.834209,-7.17413 -35.234729,-5.77361 -1.394608,1.39461 -1.404705,7.9111 -0.02314,14.89747 1.828637,9.24679 4.754162,13.96733 11.454565,18.48272 11.537806,7.77535 44.930944,18.519 65.932954,21.21278 24.77538,3.17777 99.48102,3.09985 122.05463,-0.12743 z m 23.56372,-74.31631 c 12.18282,-3.09669 29.222,-9.15212 37.86486,-13.45651 14.47737,-7.21015 15.90142,-8.80849 18.09185,-20.30574 3.43032,-18.00514 0.65297,-19.33363 -25.74548,-12.31485 -79.45549,21.12548 -148.09441,21.12548 -227.549889,0 -26.39846,-7.01878 -29.175805,-5.69029 -25.745497,12.31485 2.241937,11.76758 3.40452,12.98521 20.37778,21.34263 33.109016,16.30247 69.201876,21.40371 136.992096,19.36201 30.20102,-0.9096 50.35816,-3.0391 65.71428,-6.94239 z M 274.28571,216.7181 c 26.28601,-4.76927 52.30903,-14.36183 61.30758,-22.59909 6.97882,-6.38842 11.61528,-23.66947 7.91391,-29.49685 -1.54954,-2.4396 -10.48463,-1.17212 -33.5242,4.75556 -75.48668,19.42143 -135.90789,19.42143 -211.394574,0 -23.03956,-5.92768 -31.974649,-7.19516 -33.524206,-4.75556 -2.598589,4.09119 0.302734,21.9531 4.402903,27.10635 6.880348,8.64748 43.113117,22.46121 68.782017,26.22312 25.49888,3.737 113.01508,2.94343 136.03657,-1.23353 z m 15.23074,-72.81586 c 28.87901,-7.53577 51.91212,-19.68525 51.91212,-27.38255 0,-7.5815 -22.59886,-19.637136 -51.91212,-27.693162 -19.75568,-5.42936 -29.72844,-6.148829 -85.23074,-6.148829 -55.50229,0 -65.47505,0.719469 -85.23073,6.148829 -29.131191,8.005988 -51.912123,20.118862 -51.912123,27.602262 0,11.07068 41.404713,28.03823 80.510373,32.99295 34.22479,4.3363 116.33622,1.14158 141.86322,-5.5195 z"
           style="opacity:1;vector-effect:none;fill:#ff613c;fill-opacity:0;stroke:#ff613c;stroke-width:67.35823822;stroke-linecap:butt;stroke-linejoin:miter;stroke-miterlimit:4;stroke-dasharray:none;stroke-dashoffset:0;stroke-opacity:0" />
        <path
           transform="scale(0.26458333)"
           inkscape:connector-curvature="0"
           id="path1063"
           d="M 141.66713,389.07174 C 99.756326,382.95926 62.643186,368.72331 46.479234,352.55937 31.406825,337.48694 30.640695,330.12911 32.016703,213.66254 33.433609,93.734265 33.125471,95.422619 56.275991,80.740994 117.55855,41.876743 270.67853,39.223655 342.6068,75.779782 c 29.469,14.977032 29.51634,15.100817 32.61777,85.266968 1.67966,38.00067 1.64017,82.80976 -0.10714,121.45645 -2.60323,57.58037 -3.15254,61.64863 -9.1916,68.07694 -8.5526,9.10383 -34.98352,22.9076 -54.82839,28.63457 -39.00483,11.25632 -125.38085,16.28146 -169.4304,9.85703 z m 122.61858,-31.23877 c 25.13437,-3.59326 56.48578,-13.3344 68.09449,-21.15748 6.58954,-4.44069 9.52766,-9.20758 11.34766,-18.4107 3.45517,-17.47161 0.63034,-18.98458 -22.66649,-12.14002 -73.70951,21.65568 -143.21123,22.6044 -220.95999,3.01616 -18.50578,-4.66239 -33.834209,-7.17413 -35.234729,-5.77361 -1.394608,1.39461 -1.404705,7.9111 -0.02314,14.89747 1.828637,9.24679 4.754162,13.96733 11.454565,18.48272 11.537806,7.77535 44.930944,18.519 65.932954,21.21278 24.77538,3.17777 99.48102,3.09985 122.05463,-0.12743 z m 23.56372,-74.31631 c 12.18282,-3.09669 29.222,-9.15212 37.86486,-13.45651 14.47737,-7.21015 15.90142,-8.80849 18.09185,-20.30574 3.43032,-18.00514 0.65297,-19.33363 -25.74548,-12.31485 -79.45549,21.12548 -148.09441,21.12548 -227.549889,0 -26.39846,-7.01878 -29.175805,-5.69029 -25.745497,12.31485 2.241937,11.76758 3.40452,12.98521 20.37778,21.34263 33.109016,16.30247 69.201876,21.40371 136.992096,19.36201 30.20102,-0.9096 50.35816,-3.0391 65.71428,-6.94239 z M 274.28571,216.7181 c 26.28601,-4.76927 52.30903,-14.36183 61.30758,-22.59909 6.97882,-6.38842 11.61528,-23.66947 7.91391,-29.49685 -1.54954,-2.4396 -10.48463,-1.17212 -33.5242,4.75556 -75.48668,19.42143 -135.90789,19.42143 -211.394574,0 -23.03956,-5.92768 -31.974649,-7.19516 -33.524206,-4.75556 -2.598589,4.09119 0.302734,21.9531 4.402903,27.10635 6.880348,8.64748 43.113117,22.46121 68.782017,26.22312 25.49888,3.737 113.01508,2.94343 136.03657,-1.23353 z m 15.23074,-72.81586 c 28.87901,-7.53577 51.91212,-19.68525 51.91212,-27.38255 0,-7.5815 -22.59886,-19.637136 -51.91212,-27.693162 -19.75568,-5.42936 -29.72844,-6.148829 -85.23074,-6.148829 -55.50229,0 -65.47505,0.719469 -85.23073,6.148829 -29.131191,8.005988 -51.912123,20.118862 -51.912123,27.602262 0,11.07068 41.404713,28.03823 80.510373,32.99295 34.22479,4.3363 116.33622,1.14158 141.86322,-5.5195 z"
           style="opacity:1;vector-effect:none;fill:#ff613c;fill-opacity:0;stroke:#ff613c;stroke-width:67.35823822;stroke-linecap:butt;stroke-linejoin:miter;stroke-miterlimit:4;stroke-dasharray:none;stroke-dashoffset:0;stroke-opacity:0" />
        <path
           transform="scale(0.26458333)"
           inkscape:connector-curvature="0"
           id="path1065"
           d="M 141.66713,389.07174 C 99.756326,382.95926 62.643186,368.72331 46.479234,352.55937 31.406825,337.48694 30.640695,330.12911 32.016703,213.66254 33.433609,93.734265 33.125471,95.422619 56.275991,80.740994 117.55855,41.876743 270.67853,39.223655 342.6068,75.779782 c 29.469,14.977032 29.51634,15.100817 32.61777,85.266968 1.67966,38.00067 1.64017,82.80976 -0.10714,121.45645 -2.60323,57.58037 -3.15254,61.64863 -9.1916,68.07694 -8.5526,9.10383 -34.98352,22.9076 -54.82839,28.63457 -39.00483,11.25632 -125.38085,16.28146 -169.4304,9.85703 z m 122.61858,-31.23877 c 25.13437,-3.59326 56.48578,-13.3344 68.09449,-21.15748 6.58954,-4.44069 9.52766,-9.20758 11.34766,-18.4107 3.45517,-17.47161 0.63034,-18.98458 -22.66649,-12.14002 -73.70951,21.65568 -143.21123,22.6044 -220.95999,3.01616 -18.50578,-4.66239 -33.834209,-7.17413 -35.234729,-5.77361 -1.394608,1.39461 -1.404705,7.9111 -0.02314,14.89747 1.828637,9.24679 4.754162,13.96733 11.454565,18.48272 11.537806,7.77535 44.930944,18.519 65.932954,21.21278 24.77538,3.17777 99.48102,3.09985 122.05463,-0.12743 z m 23.56372,-74.31631 c 12.18282,-3.09669 29.222,-9.15212 37.86486,-13.45651 14.47737,-7.21015 15.90142,-8.80849 18.09185,-20.30574 3.43032,-18.00514 0.65297,-19.33363 -25.74548,-12.31485 -79.45549,21.12548 -148.09441,21.12548 -227.549889,0 -26.39846,-7.01878 -29.175805,-5.69029 -25.745497,12.31485 2.241937,11.76758 3.40452,12.98521 20.37778,21.34263 33.109016,16.30247 69.201876,21.40371 136.992096,19.36201 30.20102,-0.9096 50.35816,-3.0391 65.71428,-6.94239 z M 274.28571,216.7181 c 26.28601,-4.76927 52.30903,-14.36183 61.30758,-22.59909 6.97882,-6.38842 11.61528,-23.66947 7.91391,-29.49685 -1.54954,-2.4396 -10.48463,-1.17212 -33.5242,4.75556 -75.48668,19.42143 -135.90789,19.42143 -211.394574,0 -23.03956,-5.92768 -31.974649,-7.19516 -33.524206,-4.75556 -2.598589,4.09119 0.302734,21.9531 4.402903,27.10635 6.880348,8.64748 43.113117,22.46121 68.782017,26.22312 25.49888,3.737 113.01508,2.94343 136.03657,-1.23353 z m 15.23074,-72.81586 c 28.87901,-7.53577 51.91212,-19.68525 51.91212,-27.38255 0,-7.5815 -22.59886,-19.637136 -51.91212,-27.693162 -19.75568,-5.42936 -29.72844,-6.148829 -85.23074,-6.148829 -55.50229,0 -65.47505,0.719469 -85.23073,6.148829 -29.131191,8.005988 -51.912123,20.118862 -51.912123,27.602262 0,11.07068 41.404713,28.03823 80.510373,32.99295 34.22479,4.3363 116.33622,1.14158 141.86322,-5.5195 z"
           style="opacity:1;vector-effect:none;fill:#ff613c;fill-opacity:0;stroke:#ff613c;stroke-width:67.35823822;stroke-linecap:butt;stroke-linejoin:miter;stroke-miterlimit:4;stroke-dasharray:none;stroke-dashoffset:0;stroke-opacity:0" />
      </g>
      <g
         transform="translate(0,5.4340429)"
         inkscape:label="Layer 2"
         id="layer2" />
    </g>
    <g
       id="g900"
       transform="matrix(0.22698895,0,0,0.22698895,353.01019,175.58208)">
      <path
         id="path892"
         d="m 666.3,296.5 c 0,-32.5 -40.7,-63.3 -103.1,-82.4 14.4,-63.6 8,-114.2 -20.2,-130.4 -6.5,-3.8 -14.1,-5.6 -22.4,-5.6 v 22.3 c 4.6,0 8.3,0.9 11.4,2.6 13.6,7.8 19.5,37.5 14.9,75.7 -1.1,9.4 -2.9,19.3 -5.1,29.4 -19.6,-4.8 -41,-8.5 -63.5,-10.9 -13.5,-18.5 -27.5,-35.3 -41.6,-50 32.6,-30.3 63.2,-46.9 84,-46.9 V 78 c 0,0 0,0 0,0 -27.5,0 -63.5,19.6 -99.9,53.6 C 384.4,97.8 348.4,78.4 320.9,78.4 v 22.3 c 20.7,0 51.4,16.5 84,46.6 -14,14.7 -28,31.4 -41.3,49.9 -22.6,2.4 -44,6.1 -63.6,11 -2.3,-10 -4,-19.7 -5.2,-29 -4.7,-38.2 1.1,-67.9 14.6,-75.8 3,-1.8 6.9,-2.6 11.5,-2.6 V 78.5 c 0,0 0,0 0,0 -8.4,0 -16,1.8 -22.6,5.6 -28.1,16.2 -34.4,66.7 -19.9,130.1 -62.2,19.2 -102.7,49.9 -102.7,82.3 0,32.5 40.7,63.3 103.1,82.4 -14.4,63.6 -8,114.2 20.2,130.4 6.5,3.8 14.1,5.6 22.5,5.6 27.5,0 63.5,-19.6 99.9,-53.6 36.4,33.8 72.4,53.2 99.9,53.2 8.4,0 16,-1.8 22.6,-5.6 28.1,-16.2 34.4,-66.7 19.9,-130.1 62,-19.1 102.5,-49.9 102.5,-82.3 z M 536.1,229.8 c -3.7,12.9 -8.3,26.2 -13.5,39.5 -4.1,-8 -8.4,-16 -13.1,-24 -4.6,-8 -9.5,-15.8 -14.4,-23.4 14.2,2.1 27.9,4.7 41,7.9 z m -45.8,106.5 c -7.8,13.5 -15.8,26.3 -24.1,38.2 -14.9,1.3 -30,2 -45.2,2 -15.1,0 -30.2,-0.7 -45,-1.9 -8.3,-11.9 -16.4,-24.6 -24.2,-38 -7.6,-13.1 -14.5,-26.4 -20.8,-39.8 6.2,-13.4 13.2,-26.8 20.7,-39.9 7.8,-13.5 15.8,-26.3 24.1,-38.2 14.9,-1.3 30,-2 45.2,-2 15.1,0 30.2,0.7 45,1.9 8.3,11.9 16.4,24.6 24.2,38 7.6,13.1 14.5,26.4 20.8,39.8 -6.3,13.4 -13.2,26.8 -20.7,39.9 z m 32.3,-13 c 5.4,13.4 10,26.8 13.8,39.8 -13.1,3.2 -26.9,5.9 -41.2,8 4.9,-7.7 9.8,-15.6 14.4,-23.7 4.6,-8 8.9,-16.1 13,-24.1 z M 421.2,430 c -9.3,-9.6 -18.6,-20.3 -27.8,-32 9,0.4 18.2,0.7 27.5,0.7 9.4,0 18.7,-0.2 27.8,-0.7 -9,11.7 -18.3,22.4 -27.5,32 z m -74.4,-58.9 c -14.2,-2.1 -27.9,-4.7 -41,-7.9 3.7,-12.9 8.3,-26.2 13.5,-39.5 4.1,8 8.4,16 13.1,24 4.7,8 9.5,15.8 14.4,23.4 z M 420.7,163 c 9.3,9.6 18.6,20.3 27.8,32 -9,-0.4 -18.2,-0.7 -27.5,-0.7 -9.4,0 -18.7,0.2 -27.8,0.7 9,-11.7 18.3,-22.4 27.5,-32 z m -74,58.9 c -4.9,7.7 -9.8,15.6 -14.4,23.7 -4.6,8 -8.9,16 -13,24 -5.4,-13.4 -10,-26.8 -13.8,-39.8 13.1,-3.1 26.9,-5.8 41.2,-7.9 z m -90.5,125.2 c -35.4,-15.1 -58.3,-34.9 -58.3,-50.6 0,-15.7 22.9,-35.6 58.3,-50.6 8.6,-3.7 18,-7 27.7,-10.1 5.7,19.6 13.2,40 22.5,60.9 -9.2,20.8 -16.6,41.1 -22.2,60.6 -9.9,-3.1 -19.3,-6.5 -28,-10.2 z M 310,490 c -13.6,-7.8 -19.5,-37.5 -14.9,-75.7 1.1,-9.4 2.9,-19.3 5.1,-29.4 19.6,4.8 41,8.5 63.5,10.9 13.5,18.5 27.5,35.3 41.6,50 -32.6,30.3 -63.2,46.9 -84,46.9 -4.5,-0.1 -8.3,-1 -11.3,-2.7 z m 237.2,-76.2 c 4.7,38.2 -1.1,67.9 -14.6,75.8 -3,1.8 -6.9,2.6 -11.5,2.6 -20.7,0 -51.4,-16.5 -84,-46.6 14,-14.7 28,-31.4 41.3,-49.9 22.6,-2.4 44,-6.1 63.6,-11 2.3,10.1 4.1,19.8 5.2,29.1 z m 38.5,-66.7 c -8.6,3.7 -18,7 -27.7,10.1 -5.7,-19.6 -13.2,-40 -22.5,-60.9 9.2,-20.8 16.6,-41.1 22.2,-60.6 9.9,3.1 19.3,6.5 28.1,10.2 35.4,15.1 58.3,34.9 58.3,50.6 -0.1,15.7 -23,35.6 -58.4,50.6 z"
         inkscape:connector-curvature="0"
         style="fill:#61dafb" />
      <polygon
         id="polygon894"
         points=""
         style="fill:#61dafb" />
      <circle
         id="circle896"
         r="45.700001"
         cy="296.5"
         cx="420.89999"
         style="fill:#61dafb" />
      <polygon
         id="polygon898"
         points=""
         style="fill:#61dafb" />
    </g>
  </g>
  <g
     inkscape:groupmode="layer"
     id="layer4"
     inkscape:label="Layer 2"
     transform="translate(-7.48216,-47.635726)">
    <g
       id="g27"
       style="filter:url(#a)"
       transform="matrix(0.38988794,0,0,0.38988794,267.01736,322.15765)">
      <path
         d="M 261.849,660.647 221.807,211.522 h 440 L 621.721,660.576 441.537,710.53 Z"
         id="path17"
         inkscape:connector-curvature="0"
         style="fill:#e44d26" />
      <path
         d="M 441.807,672.348 587.403,631.981 621.661,248.246 H 441.807 Z"
         id="path19"
         inkscape:connector-curvature="0"
         style="fill:#f16529" />
      <path
         d="m 441.807,414.82 h -72.888 l -5.035,-56.406 h 77.923 V 303.33 H 303.683 l 1.32,14.778 13.538,151.794 h 123.266 z m 0,143.056 -0.242,0.066 -61.346,-16.566 -3.922,-43.93 h -55.294 l 7.718,86.489 112.834,31.323 0.252,-0.071 z"
         id="path21"
         inkscape:connector-curvature="0"
         style="fill:#ebebeb" />
      <path
         d="m 262.745,89.47 h 27.992 v 27.656 h 25.606 V 89.47 h 27.993 v 83.75 h -27.993 v -28.044 h -25.606 v 28.044 h -27.99 z m 118.404,27.774 H 356.507 V 89.47 H 433.8 v 27.774 H 409.146 V 173.22 H 381.15 V 117.244 Z M 446.065,89.47 h 29.19 l 17.955,29.428 17.938,-29.428 h 29.2 v 83.75 h -27.882 v -41.512 l -19.259,29.778 h -0.481 l -19.272,-29.778 v 41.512 h -27.39 V 89.47 Z m 108.212,0 h 28 v 56.068 h 39.368 v 27.682 h -67.368 z"
         id="path23"
         inkscape:connector-curvature="0" />
      <path
         d="m 441.617,414.82 v 55.082 h 67.83 l -6.395,71.44 -61.435,16.58 v 57.307 l 112.924,-31.294 0.826,-9.309 12.946,-145.014 1.344,-14.792 h -14.842 z m 0,-111.49 v 55.084 H 574.67 l 1.103,-12.382 2.51,-27.924 1.318,-14.778 z"
         id="path25"
         inkscape:connector-curvature="0"
         style="fill:#ffffff" />
    </g>
  </g>
</svg>
